<svg xmlns="http://www.w3.org/2000/svg" xmlns:xlink="http://www.w3.org/1999/xlink" width="500" zoomAndPan="magnify" viewBox="0 0 375 374.999991" height="500" preserveAspectRatio="xMidYMid meet" version="1.0"><defs><clipPath id="4ddc851606"><path d="M 7.433594 83.289062 L 293 83.289062 L 293 291.789062 L 7.433594 291.789062 Z M 7.433594 83.289062 " clip-rule="nonzero"/></clipPath><clipPath id="83018e5e66"><path d="M 82 83.289062 L 367.433594 83.289062 L 367.433594 291.789062 L 82 291.789062 Z M 82 83.289062 " clip-rule="nonzero"/></clipPath></defs><rect x="-37.5" width="450" fill="#ffffff" y="-37.499999" height="449.999989" fill-opacity="1"/><rect x="-37.5" width="450" fill="#ffffff" y="-37.499999" height="449.999989" fill-opacity="1"/><rect x="-37.5" width="450" fill="#ffffff" y="-37.499999" height="449.999989" fill-opacity="1"/><g clip-path="url(#4ddc851606)"><path fill="#ff66c4" d="M 143.589844 133.175781 C 133.792969 127.449219 122.742188 124.582031 111.683594 124.582031 C 95.519531 124.582031 79.367188 130.707031 67.132812 142.949219 C 54.898438 155.1875 48.785156 171.355469 48.785156 187.53125 C 48.785156 203.710938 54.898438 219.875 67.132812 232.117188 C 79.367188 244.359375 95.519531 250.480469 111.683594 250.480469 C 127.851562 250.480469 144.003906 244.359375 156.234375 232.117188 L 226.445312 161.855469 L 234.800781 153.5 C 251.332031 139.710938 276.242188 139.988281 292.417969 154.226562 L 185.410156 261.316406 C 165.117188 281.621094 138.394531 291.777344 111.683594 291.777344 C 84.976562 291.777344 58.25 281.621094 37.957031 261.316406 C 17.664062 241.007812 7.519531 214.261719 7.519531 187.53125 C 7.519531 160.804688 17.664062 134.058594 37.957031 113.75 C 58.25 93.441406 84.976562 83.289062 111.683594 83.289062 C 133.382812 83.289062 155.089844 89.988281 173.351562 103.390625 Z M 143.589844 133.175781 " fill-opacity="1" fill-rule="nonzero"/></g><g clip-path="url(#83018e5e66)"><path fill="#004aad" d="M 231.277344 241.890625 C 241.078125 247.617188 252.125 250.480469 263.183594 250.480469 C 279.351562 250.480469 295.503906 244.359375 307.738281 232.117188 C 319.96875 219.875 326.085938 203.710938 326.085938 187.53125 C 326.085938 171.355469 319.96875 155.1875 307.738281 142.949219 C 295.503906 130.707031 279.351562 124.582031 263.183594 124.582031 C 247.019531 124.582031 230.867188 130.707031 218.632812 142.949219 L 148.421875 213.210938 L 140.070312 221.566406 C 123.539062 235.351562 98.628906 235.078125 82.449219 220.839844 L 189.457031 113.75 C 209.75 93.441406 236.476562 83.289062 263.183594 83.289062 C 289.894531 83.289062 316.617188 93.441406 336.910156 113.75 C 357.203125 134.058594 367.351562 160.804688 367.351562 187.53125 C 367.351562 214.261719 357.203125 241.007812 336.910156 261.316406 C 316.617188 281.621094 289.894531 291.777344 263.183594 291.777344 C 241.488281 291.777344 219.777344 285.074219 201.515625 271.671875 Z M 231.277344 241.890625 " fill-opacity="1" fill-rule="nonzero"/></g></svg>